<?xml version="1.0" encoding="utf-8"?>
<!-- Generator: Adobe Illustrator 24.1.1, SVG Export Plug-In . SVG Version: 6.00 Build 0)  -->
<svg version="1.1" id="Capa_1" xmlns="http://www.w3.org/2000/svg" xmlns:xlink="http://www.w3.org/1999/xlink" x="0px" y="0px"
	 viewBox="0 0 20.9 23.7" style="enable-background:new 0 0 20.9 23.7;" xml:space="preserve">
<path fill="#363636" d="M15,3.2H6.2c-0.9,0-1.6,0.8-1.6,1.7c0,0,0,0,0,0v13.6c0,0.4,0.2,0.8,0.6,1c0.1,0.1,0.3,0.1,0.4,0.1l0,0
	c0.2,0,0.5-0.1,0.7-0.3l3.9-3.2c0.1-0.1,0.2-0.1,0.3-0.1c0.1,0,0.2,0,0.3,0.1l3.9,3.2c0.2,0.2,0.4,0.2,0.7,0.2c0.2,0,0.3,0,0.4-0.1
	c0.4-0.2,0.6-0.6,0.6-1V4.8C16.6,3.9,15.9,3.2,15,3.2z M15.4,18.2L15.4,18.2l-3.7-3.2c-0.6-0.5-1.4-0.5-1.9,0L6,18.1h0l0,0
	c0,0,0,0-0.1-0.1l0-13c0-0.3,0.3-0.6,0.6-0.6c0,0,0,0,0,0l8.3,0c0.4,0,0.6,0.3,0.6,0.7c0,0,0,0,0,0L15.4,18.2
	C15.5,18.1,15.5,18.2,15.4,18.2L15.4,18.2z"/>
</svg>
