<?xml version="1.0" encoding="utf-8"?>
<!-- Generator: Adobe Illustrator 22.0.1, SVG Export Plug-In . SVG Version: 6.00 Build 0)  -->
<svg version="1.1" id="Capa_1" xmlns="http://www.w3.org/2000/svg" xmlns:xlink="http://www.w3.org/1999/xlink" x="0px" y="0px"
	 viewBox="0 0 25.3 25.6" style="enable-background:new 0 0 25.3 25.6;" xml:space="preserve">
<style type="text/css">
	.st0{clip-path:url(#SVGID_2_);}
	.st1{fill:#FA7697;}
	.st2{fill:#FFBC1F;}
	.st3{fill:#FF8164;}
	.st4{fill:#30D6AF;}
	.st5{fill:#3F67F2;}
	.st6{fill:#EBEDEB;}
	.st7{fill:#562F8A;}
	.st8{fill:#FFFFFF;}
	.st9{fill:#C3B5DB;}
	.st10{fill:#441981;}
	.st11{opacity:0.2;fill:#FFFFFF;}
	.st12{clip-path:url(#SVGID_4_);}
	.st13{fill:#0AD18C;}
	.st14{opacity:0.7;fill:#FFFFFF;}
	.st15{opacity:0.3;}
	.st16{fill:#434142;}
	.st17{fill:#FF0000;}
	.st18{fill:none;stroke:#562F8A;stroke-width:2;stroke-miterlimit:10;}
	.st19{fill:none;stroke:#FFFFFF;stroke-width:2;stroke-miterlimit:10;}
	.st20{opacity:0.3;fill:none;stroke:#343434;stroke-width:0.605;stroke-miterlimit:10;}
	.st21{fill:#211915;}
	.st22{fill:#631AAD;}
	.st23{fill:#474747;}
	.st24{fill:#5620A3;}
	.st25{fill:none;stroke:#0AD18C;stroke-miterlimit:10;}
	.st26{fill:none;}
	.st27{fill:#363636;}
	.st28{fill:#FFFFFF;stroke:#AFAFAF;stroke-miterlimit:10;}
	.st29{fill:none;stroke:#DBDCDE;stroke-miterlimit:10;}
	.st30{fill:#EEEEEE;}
	.st31{fill:#451980;}
	.st32{fill:#8652AA;}
	.st33{fill:none;stroke:#55959F;stroke-width:2;stroke-miterlimit:10;}
	.st34{clip-path:url(#SVGID_34_);fill:#FFFFFF;}
	.st35{clip-path:url(#SVGID_34_);}
	.st36{clip-path:url(#SVGID_38_);}
	.st37{clip-path:url(#SVGID_42_);fill:#C3B5DB;}
	.st38{clip-path:url(#SVGID_42_);}
	.st39{fill:#88878C;}
	.st40{clip-path:url(#SVGID_62_);fill:#EBEDEB;}
	.st41{clip-path:url(#SVGID_62_);}
	.st42{fill:none;stroke:#363636;stroke-miterlimit:10;}
	.st43{fill:#80768E;}
	.st44{opacity:0.3;fill:#0AD18C;}
	.st45{clip-path:url(#SVGID_78_);fill:#FFFFFF;}
	.st46{clip-path:url(#SVGID_78_);}
	.st47{opacity:0.4;}
	.st48{opacity:0.4;fill:none;stroke:#FFFFFF;stroke-width:0.7124;stroke-miterlimit:10;}
	.st49{fill:none;stroke:#FFFFFF;stroke-width:0.7124;stroke-miterlimit:10;}
	.st50{fill:#1E1E1E;}
	.st51{fill:#A6A6A6;}
</style>
<g>
	<path class="st43" d="M21.6,19.8c-0.3-0.4-0.6-0.7-0.7-1.2c-0.4-1.5,0.1-3.1,0.1-3.1l0,0c0.3-0.9,0.5-1.9,0.5-2.9c0-5-4-9-9-9
		c-5,0-9,4-9,9c0,3.9,2.4,7.2,5.8,8.4l0,0c0,0,0,0,0.1,0c0.4,0.2,0.9,0.3,1.4,0.4c1.8,0.4,5.4,0.9,10.4,0.1
		C22.2,21.3,22.2,20.5,21.6,19.8z M14,14.6h-3.4c-0.3,0-0.6-0.3-0.6-0.6s0.3-0.6,0.6-0.6H14c0.3,0,0.6,0.3,0.6,0.6
		C14.6,14.4,14.3,14.6,14,14.6z M15.4,12.3h-4.8c-0.3,0-0.6-0.3-0.6-0.6c0-0.3,0.3-0.6,0.6-0.6h4.8c0.3,0,0.6,0.3,0.6,0.6
		C16,12,15.7,12.3,15.4,12.3z"/>
</g>
</svg>
