<?xml version="1.0" encoding="utf-8"?>
<!-- Generator: Adobe Illustrator 24.1.1, SVG Export Plug-In . SVG Version: 6.00 Build 0)  -->
<svg version="1.1" id="Capa_1" xmlns="http://www.w3.org/2000/svg" xmlns:xlink="http://www.w3.org/1999/xlink" x="0px" y="0px"
	 viewBox="0 0 16.5 16.2" style="enable-background:new 0 0 16.5 16.2;" xml:space="preserve">
<g fill="#ffffff">
<path d="M9.4,9.7h-3c-0.3,0-0.5-0.2-0.5-0.5c0-0.3,0.2-0.5,0.5-0.5h3c0.3,0,0.5,0.2,0.5,0.5C10,9.5,9.7,9.7,9.4,9.7z"/>
<path d="M10.7,7.6H6.4c-0.3,0-0.6-0.2-0.6-0.5S6,6.6,6.3,6.6c0,0,0.1,0,0.1,0h4.3c0.3,0,0.6,0.2,0.6,0.5
	s-0.2,0.6-0.5,0.6C10.8,7.6,10.7,7.6,10.7,7.6z"/>
<path d="M16.2,14.3c-0.3-0.3-0.5-0.7-0.7-1.1c-0.2-0.9-0.2-1.9,0.1-2.8l0,0C15.9,9.6,16,8.8,16,7.9c0-4.4-3.6-8-8-8
	S0,3.6,0,8c0,3.3,2.1,6.3,5.1,7.4l0,0l0,0c0.4,0.1,0.8,0.3,1.2,0.4c1.5,0.3,3,0.5,4.5,0.5c1.6,0,3.2-0.1,4.7-0.4
	C16.7,15.7,16.7,14.9,16.2,14.3z M10.9,15.2c-1.4,0-2.9-0.1-4.3-0.4c-0.3-0.1-0.7-0.2-1-0.3H5.5c-3.6-1.4-5.4-5.4-4-9s5.4-5.4,9-4
	c3.5,1.3,5.3,5.2,4.1,8.7l-0.9,2.7l0.7-0.4c0,0.4,0.1,0.7,0.2,1.1v0.1c0.2,0.5,0.4,0.9,0.8,1.3C13.9,15.1,12.4,15.2,10.9,15.2z"/>
</g>
</svg>
