<?xml version="1.0" encoding="iso-8859-1"?>
<!-- Uploaded to: SVG Repo, www.svgrepo.com, Generator: SVG Repo Mixer Tools -->
<svg fill="#000000" height="800px" width="800px" version="1.1" id="Layer_1" xmlns="http://www.w3.org/2000/svg" xmlns:xlink="http://www.w3.org/1999/xlink" 
	 viewBox="0 0 512 512" xml:space="preserve">
<g>
	<g>
		<path d="M490.667,95.861H448V73.269c0-7.915-4.395-15.189-11.392-18.88c-53.781-28.224-126.293-29.483-180.715-4.416
			c-56-25.109-128.597-23.808-180.757,4.565C68.267,58.272,64,65.461,64,73.269v22.592H21.333C9.536,95.861,0,105.418,0,117.194
			v341.333c0,11.776,9.536,21.333,21.333,21.333h469.333c11.797,0,21.333-9.557,21.333-21.333V117.194
			C512,105.418,502.464,95.861,490.667,95.861z M469.333,437.194H42.667V138.527H64v256c0,7.552,3.989,14.528,10.475,18.368
			c1.664,0.981,3.413,1.707,5.227,2.197c0.427,0.128,0.896,0.107,1.344,0.192c1.387,0.299,2.773,0.555,4.16,0.555
			c0.043,0,0.085,0.021,0.128,0.021c0.896,0,1.792-0.213,2.688-0.341c0.853-0.107,1.707-0.107,2.517-0.32
			c1.749-0.427,3.456-1.088,5.056-1.984c42.517-23.381,101.845-23.147,151.168,0.533c0.64,0.32,1.344,0.427,2.005,0.661
			c0.789,0.299,1.557,0.619,2.389,0.811c1.003,0.235,2.005,0.32,3.029,0.405c0.597,0.043,1.195,0.235,1.813,0.235
			c0.128,0,0.256-0.043,0.384-0.043c0.149,0,0.277-0.021,0.405-0.021c0.811-0.021,1.579-0.213,2.368-0.32
			c0.896-0.149,1.813-0.256,2.709-0.512c0.832-0.235,1.621-0.619,2.411-0.96c0.661-0.277,1.365-0.427,1.984-0.789
			c42.517-23.381,101.845-23.147,151.168,0.533c6.613,3.179,14.379,2.731,20.587-1.152c6.208-3.904,9.984-10.731,9.984-18.069v-256
			h21.333V437.194z"/>
	</g>
</g>
</svg>