<?xml version="1.0" encoding="utf-8"?>
<!-- Generator: Adobe Illustrator 24.1.1, SVG Export Plug-In . SVG Version: 6.00 Build 0)  -->
<svg version="1.1" id="Capa_1" xmlns="http://www.w3.org/2000/svg" xmlns:xlink="http://www.w3.org/1999/xlink" x="0px" y="0px"
	 viewBox="0 0 511.6 511.6" style="enable-background:new 0 0 511.6 511.6;" xml:space="preserve">
<path d="M481.7,441.7l-8.9-13.4c-0.3-0.4-0.6-0.8-0.9-1.1L363,311c-2.7-2.9-3.1-7.3-0.9-10.6c71-108.4,7.3-195-2.6-207.3
	c-1.2-1.5-2.4-3-3.5-4.5C284.3-3.5,184.7,7.9,129,30C82.9,48.3,52.2,85.1,33.9,131.3C7.2,198.5,22.4,260.6,57,307.7
	c16.9,23,55.5,54.8,89.7,67.8c66.3,25.2,132.7-3.5,152.1-13.2c3.4-1.7,7.5-1,10.1,1.8l112.6,120.2c8.1,8.7,19.8,13.2,31.6,12.2
	c34.4-3.1,33.4-34.5,31.7-46.7C484.4,446.9,483.3,444.1,481.7,441.7z M208.6,307.7c-59.7-1.1-103.5-40.9-107.6-99.2
	c-4.8-66.8,50.6-123.1,117.5-119.1c58.9,3.5,101.6,46.3,103.3,105.8C323.6,258.1,271.6,308.9,208.6,307.7z"/>
</svg>
