<?xml version="1.0" encoding="utf-8"?>
<!-- Generator: Adobe Illustrator 22.0.1, SVG Export Plug-In . SVG Version: 6.00 Build 0)  -->
<svg version="1.1" id="Capa_1" xmlns="http://www.w3.org/2000/svg" xmlns:xlink="http://www.w3.org/1999/xlink" x="0px" y="0px"
	 viewBox="0 0 115 75" style="enable-background:new 0 0 115 75;" xml:space="preserve">
<style type="text/css">
	.st0{clip-path:url(#SVGID_2_);fill:#8B5BC4;}
	.st1{clip-path:url(#SVGID_2_);}
	.st2{fill:#834DB6;}
	.st3{opacity:0.7;fill:#631AAD;}
	.st4{fill:#FFFFFF;}
	.st5{fill:#FEFEFE;}
	.st6{fill:#4285F4;}
	.st7{fill:#34A853;}
	.st8{fill:#FBBC04;}
	.st9{fill:#EA4335;}
	.st10{fill:#363636;}
	.st11{fill:#1F5A9A;}
	.st12{fill:#562F8A;}
	.st13{fill:#EBEDEB;}
	.st14{fill:#631AAD;}
	.st15{fill:#0AD18C;}
	.st16{fill:#807694;}
</style>
<g>
	<g>
		<g>
			<path class="st4" d="M26,61.8c0.7,0,1.8-2.9,3.3-8.8c0.9-3.3,1.3-5.2,1.5-5.6c0.5-1.3,1.2-1.9,2-1.9s1.2,0.6,1.2,1.7
				c0,0.6-0.2,1.7-0.7,3.4c-0.5,1.7-1.1,4.1-2,7.4c-0.9,3.3-1.5,5.5-2,6.8c-0.5,1.2-1.1,2.1-1.9,2.7c-0.4,0.3-0.8,0.5-1.1,0.5
				c-1,0-1.8-0.6-2.5-1.8c-0.7-1.2-1.6-3.4-2.8-6.6c-1.2-3.2-1.8-4.7-1.9-4.7c-0.1,0-0.8,1.6-2,4.8c-1.3,3.2-2.1,5.2-2.6,6
				c-0.8,1.4-1.6,2.1-2.6,2.1c-0.3,0-0.6-0.1-1-0.4c-0.8-0.6-1.4-1.5-1.9-2.7c-0.5-1.2-1.3-4.3-2.7-9.1c-1.3-4.8-2-7.5-2-7.9v-0.5
				c0-0.9,0.4-1.4,1.1-1.4c0.7,0,1.3,0.2,1.7,0.5C7.6,46.5,8,47,8.4,47.8c0.1,0.3,0.9,2.7,2.2,7.3c1.4,4.6,2.2,6.9,2.6,6.9
				c0.4,0,1-1.6,1.9-4.7c0.8-3.1,1.3-5.4,1.5-6.9s0.3-2.3,0.4-2.5c0.4-1.1,1.1-1.6,2.2-1.6c1.3,0,2.3,0.6,2.7,1.7
				c0.3,0.6,0.5,1.6,0.8,2.9c0.3,1.3,0.8,3.5,1.7,6.4C25.2,60.3,25.8,61.8,26,61.8z"/>
			<path class="st4" d="M44.6,67.9h-0.8c-2.4,0-4.3-0.8-5.8-2.4c-0.6-0.7-1.1-1.6-1.5-2.7c-0.4-1.1-0.5-2.2-0.5-3.3v-0.8
				c0-1.1,0.2-2.2,0.7-3.4c0.9-2.3,2.4-3.9,4.5-4.8c1.1-0.4,2.2-0.7,3.4-0.7h0.4c1.7,0,3.1,0.5,4.2,1.5c0.6,0.6,1.1,1.3,1.4,2.1
				c0.3,0.8,0.5,1.6,0.5,2.2c0,1.4-0.5,2.4-1.4,2.8c-0.6,0.3-2,0.6-4.3,0.8c-2.2,0.3-3.4,0.4-3.7,0.5c-1,0.3-1.6,0.7-1.6,1.4
				c0,1.2,0.5,2.1,1.6,2.9c0.8,0.6,1.9,0.9,3.3,0.9c0.6,0,1.4-0.2,2.7-0.5c1.2-0.3,1.9-0.5,2-0.5c0.6,0,0.9,0.3,0.9,0.8
				c0,0.7-0.7,1.4-2,2.1C47.4,67.5,46,67.9,44.6,67.9z M45.3,57c0.8,0,1.4-0.1,1.7-0.4c0.3-0.3,0.5-0.5,0.5-0.9V55
				c0-0.9-0.3-1.6-1-2.1s-1.3-0.8-2.1-0.8H44c-1.1,0-2,0.5-2.9,1.4c-0.8,0.9-1.2,1.9-1.2,3v0.3c0,0.4,0.4,0.6,1.2,0.6h0.4l0.1,0
				l1.3-0.1l0.9-0.1l0.6-0.1c0.1,0,0.3,0,0.4-0.1C45.1,57.1,45.2,57,45.3,57z"/>
			<path class="st4" d="M64.8,67.8c-1.1,0-2.3-0.1-3.6-0.4c-1.3-0.3-2.3-0.5-2.8-0.8c-0.5-0.3-1-0.7-1.3-1.2c-0.3-0.5-0.5-1-0.5-1.5
				c0-0.5,0.1-0.9,0.4-1.1c0.3-0.3,0.5-0.4,0.8-0.4c0.3,0,0.9,0.3,1.7,0.9c0.8,0.6,1.6,1.1,2.5,1.4s1.8,0.5,3.1,0.5
				c1.2,0,2.2-0.3,3-0.9c0.8-0.6,1.1-1.4,1.1-2.5c0-1.1-0.7-2-2.1-2.9c-0.4-0.2-1.7-0.8-3.8-1.7c-2.2-0.9-3.6-1.7-4.3-2.4
				c-0.7-0.7-1.2-1.3-1.5-2c-0.3-0.7-0.5-1.5-0.5-2.4c0-1.7,0.8-3.1,2.4-4.2c1.4-1,3.6-1.5,6.4-1.5c1.7,0,3.2,0.2,4.4,0.7
				c0.5,0.2,1,0.6,1.4,1.1c0.4,0.5,0.5,1,0.5,1.4c0,1-0.4,1.6-1.1,1.6c-0.2,0-1-0.4-2.2-1.1c-1.3-0.7-2.5-1.1-3.8-1.1
				c-1.3,0-2.3,0.3-3.1,0.8c-0.8,0.5-1.2,1.3-1.2,2.2s0.5,1.8,1.5,2.5c0.6,0.4,1.9,1.1,4.2,2c2.2,0.9,3.8,1.7,4.6,2.5
				c0.8,0.7,1.4,1.4,1.6,2.1c0.3,0.7,0.4,1.5,0.4,2.3c0,0.9-0.2,1.7-0.6,2.5c-0.8,1.6-2.3,2.7-4.5,3.3c-1,0.3-2.1,0.4-3.1,0.4
				C64.8,67.8,64.8,67.8,64.8,67.8z"/>
			<path class="st4" d="M84.9,67.9h-0.8c-2.4,0-4.3-0.8-5.8-2.4c-0.6-0.7-1.1-1.6-1.5-2.7s-0.5-2.2-0.5-3.3v-0.8
				c0-1.1,0.2-2.2,0.7-3.4c0.9-2.3,2.4-3.9,4.5-4.8c1.1-0.4,2.2-0.7,3.4-0.7h0.4c1.7,0,3.1,0.5,4.2,1.5c0.6,0.6,1.1,1.3,1.4,2.1
				c0.3,0.8,0.5,1.6,0.5,2.2c0,1.4-0.5,2.4-1.4,2.8c-0.6,0.3-2,0.6-4.3,0.8c-2.2,0.3-3.4,0.4-3.7,0.5c-1,0.3-1.6,0.7-1.6,1.4
				c0,1.2,0.5,2.1,1.6,2.9c0.8,0.6,1.9,0.9,3.3,0.9c0.6,0,1.4-0.2,2.7-0.5c1.2-0.3,1.9-0.5,2-0.5c0.6,0,0.9,0.3,0.9,0.8
				c0,0.7-0.7,1.4-2,2.1C87.7,67.5,86.3,67.9,84.9,67.9z M85.7,57c0.8,0,1.4-0.1,1.7-0.4c0.3-0.3,0.5-0.5,0.5-0.9V55
				c0-0.9-0.3-1.6-1-2.1c-0.6-0.6-1.3-0.8-2.1-0.8h-0.5c-1.1,0-2,0.5-2.9,1.4c-0.8,0.9-1.2,1.9-1.2,3v0.3c0,0.4,0.4,0.6,1.2,0.6h0.4
				l0.1,0l1.3-0.1l0.9-0.1l0.6-0.1c0.1,0,0.3,0,0.4-0.1S85.6,57,85.7,57z"/>
			<path class="st4" d="M96.7,67.7h-0.4c-1,0-1.5-0.3-1.5-1c0,0,0.9-1.3,2.6-3.8c1.7-2.5,2.6-3.9,2.6-4.3c0-0.4-0.8-1.7-2.3-3.9
				c-0.4-0.6-1-1.3-1.7-2.1c-0.7-0.8-1.1-1.3-1.1-1.6c0-0.7,0.9-1,2.6-1c1.2,0,2.1,0.3,2.6,0.9c0.1,0.1,0.2,0.4,0.4,0.8
				c0.1,0.4,0.4,0.9,0.8,1.6c0.8,1.5,1.4,2.3,1.8,2.3c0.3,0,0.9-0.8,1.9-2.4c0.4-0.6,0.7-1.2,0.9-1.7s0.3-0.9,0.4-1
				c0.4-0.5,0.9-0.7,1.7-0.7c1.4,0,2.2,0.3,2.2,0.8c0,0.3-0.8,1.5-2.5,3.6c-1.7,2.1-2.5,3.5-2.5,4.1c0,0.6,0.9,2.1,2.7,4.4
				c0.6,0.8,1.2,1.5,1.9,2.1c0.7,0.6,1,1.1,1,1.5c0,0.7-1,1-3,1c-1,0-1.7-0.3-2.2-0.8c-0.1-0.1-0.2-0.4-0.4-0.8
				c-0.2-0.5-0.4-0.9-0.7-1.4c-1.1-1.9-1.8-2.8-2-2.8c-0.4,0-1.1,0.9-2.1,2.6c-0.3,0.5-0.6,1.1-0.8,1.7c-0.2,0.6-0.4,1-0.4,1.1
				C98.5,67.4,97.8,67.7,96.7,67.7z"/>
		</g>
		<path class="st4" d="M71.7,23.3c3.2-2.9,5.7-6.7,6.8-11.1c0.2-0.9-0.3-1.8-1.2-2c-0.9-0.2-1.8,0.3-2,1.2c-1.1,4-3.3,7.4-6.3,9.9
			c-3.5-2.3-7.8-3.6-12.2-3.6c-4.5,0-8.7,1.3-12.2,3.6c-3-2.5-5.3-5.9-6.3-9.9c-0.2-0.9-1.1-1.4-2-1.2c-0.9,0.2-1.4,1.1-1.2,2
			c1.2,4.4,3.6,8.2,6.8,11.1c-3.2,2.9-5.7,6.7-6.8,11.1c-0.2,0.9,0.3,1.8,1.2,2c0.9,0.2,1.8-0.3,2-1.2c1.1-4,3.3-7.4,6.3-9.9
			c3.5,2.3,7.8,3.6,12.2,3.6c4.5,0,8.7-1.3,12.2-3.6c3,2.5,5.3,5.9,6.3,9.9c0.2,0.7,0.8,1.2,1.6,1.2c0.1,0,0.3,0,0.4-0.1
			c0.9-0.2,1.4-1.1,1.2-2C77.4,30,74.9,26.2,71.7,23.3z M56.8,25.7c-3.3,0-6.5-0.9-9.3-2.4c2.8-1.5,5.9-2.4,9.3-2.4
			c3.3,0,6.5,0.9,9.3,2.4C63.3,24.8,60.2,25.7,56.8,25.7z"/>
	</g>
</g>
</svg>
