<?xml version="1.0" encoding="utf-8"?>
<!-- Generator: Adobe Illustrator 25.0.0, SVG Export Plug-In . SVG Version: 6.00 Build 0)  -->
<svg color="#ffffff" fill="#ffffff" version="1.1" id="Layer_1" xmlns="http://www.w3.org/2000/svg" xmlns:xlink="http://www.w3.org/1999/xlink" x="0px" y="0px"
	 viewBox="0 0 38.5 38.5" style="enable-background:new 0 0 38.5 38.5;" xml:space="preserve">
<style type="text/css">
	.st0{fill:#ffffff;}
</style>
<g>
	<circle class="st0" cx="22.9" cy="10.7" r="1.2"/>
	<path class="st0" d="M20.5,14.3H18c0,0-0.1,0-0.1,0c-0.7,0-1.2,0.6-1.2,1.3c0,0.7,0.6,1.2,1.3,1.2h2.5c0,0,0,0,0,0
		c0.7,0,1.2-0.6,1.2-1.2C21.7,14.9,21.2,14.3,20.5,14.3z"/>
	<path class="st0" d="M17.5,27.2c0.1-0.2,0.2-0.4,0.2-0.6c0-0.7-0.5-1.2-1.2-1.2c-0.5,0-0.9,0.2-1.1,0.6c-2,3.4-5.6,5.5-9.6,5.5
		c0,0,0,0,0,0c-0.7,0-1.2,0.6-1.2,1.2S5.1,34,5.8,34C10.6,34,15.1,31.4,17.5,27.2z"/>
	<circle class="st0" cx="15.6" cy="10.7" r="1.2"/>
	<path class="st0" d="M36.4,27c-0.2-0.6-1-0.9-1.6-0.7c-2.4,0.9-5.1,0.1-6.8-1.9c-1.6-2-1.9-4.8-0.6-7c0,0,0,0,0,0l0.3-0.6
		c2.4-4.1,1.4-9.4-2.2-12.4c-1.8-1.5-4.1-2.3-6.3-2.3S14.8,2.8,13,4.4c-3.6,3-4.6,8.3-2.2,12.4l0.3,0.6c0,0,0,0,0,0.1
		c1.3,2.2,1.1,5-0.6,7c-1.6,2-4.3,2.7-6.8,1.9c0,0-0.1,0-0.1,0C3,26,2.3,26.4,2.1,27c-0.2,0.6,0.2,1.3,0.8,1.5
		c3.4,1.2,7.2,0.1,9.4-2.6c2.3-2.7,2.6-6.6,0.9-9.7l0-0.1l-0.3-0.6c0,0,0,0,0-0.1c-1.8-3.1-1.1-7,1.6-9.3C17.3,4,21.2,4,24,6.3
		c2.7,2.3,3.4,6.2,1.6,9.3c0,0,0,0,0,0.1l-0.3,0.6c-1.8,3.1-1.5,7,0.8,9.8c2.3,2.8,6.1,3.8,9.4,2.6c0,0,0.1,0,0.1,0
		C36.3,28.3,36.6,27.6,36.4,27z"/>
	<path class="st0" d="M32.8,31.5c-3.9,0-7.6-2.1-9.6-5.5c-0.2-0.4-0.7-0.6-1.1-0.6c-0.2,0-0.4,0.1-0.6,0.2c-0.6,0.3-0.8,1.1-0.4,1.7
		c2.4,4.2,6.9,6.7,11.7,6.7c0,0,0,0,0,0c0.7,0,1.2-0.6,1.2-1.2C34,32.1,33.4,31.5,32.8,31.5z"/>
	<path class="st0" d="M19.4,29.8c0,0-0.1,0-0.1,0c-0.4,0-0.7,0.2-0.9,0.5c-1.2,1.6-2.7,2.9-4.4,3.9c0,0-0.1,0-0.1,0
		c-0.6,0.4-0.7,1.1-0.4,1.7c0.4,0.6,1.1,0.7,1.7,0.4c1.9-1.2,3.7-2.7,5.1-4.5c0.2-0.2,0.2-0.4,0.3-0.7
		C20.6,30.4,20.1,29.8,19.4,29.8z"/>
</g>
</svg>
