<?xml version="1.0" encoding="utf-8"?>
<!-- Generator: Adobe Illustrator 25.0.0, SVG Export Plug-In . SVG Version: 6.00 Build 0)  -->
<svg color="#ffffff" fill="#ffffff" version="1.1" id="Layer_1" xmlns="http://www.w3.org/2000/svg" xmlns:xlink="http://www.w3.org/1999/xlink" x="0px" y="0px"
	 viewBox="0 0 38.5 38.5" style="enable-background:new 0 0 38.5 38.5;" xml:space="preserve">
<style type="text/css">
	.st0{fill:#ffffff;}
</style>
<g>
	<path class="st0" d="M30.1,1.9c-3.9,0-7.1,3.2-7.1,7.1c0,1,0.8,1.8,1.8,1.8c1,0,1.8-0.8,1.8-1.8c0-1.9,1.6-3.5,3.5-3.5
		c2,0,3.5,1.4,3.5,3.3c0,0,0,0,0,0.1c0,1.1-0.3,3.6-3.8,4.2c-0.9,0.1-1.6,0.9-1.6,1.8V20c0,1,0.8,1.8,1.8,1.8c1,0,1.8-0.8,1.8-1.8
		v-3.5c4.6-1.4,5.3-5.4,5.3-7.6C37.2,5,34,1.9,30.1,1.9z"/>
	<path class="st0" d="M30.1,24c-1.3,0-2.3,1.1-2.3,2.3c0,1.3,1.1,2.3,2.3,2.3c1.3,0,2.3-1.1,2.3-2.3C32.4,25.1,31.3,24,30.1,24z"/>
	<path class="st0" d="M14,29.2c-1,0-1.8,0.8-1.8,1.8c0,1.9-1.6,3.5-3.5,3.5c-2,0-3.5-1.4-3.5-3.3c0,0,0,0,0-0.1
		c0-1.1,0.3-3.6,3.8-4.2c0.9-0.1,1.6-0.9,1.6-1.8v-4.9c0-1-0.8-1.8-1.8-1.8s-1.8,0.8-1.8,1.8v3.5c-4.6,1.4-5.3,5.4-5.3,7.6
		c0,3.9,3.2,7,7.1,7c3.9,0,7.1-3.2,7.1-7.1C15.8,30,15,29.2,14,29.2z"/>
	<path class="st0" d="M8.7,16.1c1.3,0,2.3-1.1,2.3-2.3c0-1.3-1.1-2.3-2.3-2.3c-1.3,0-2.3,1.1-2.3,2.3C6.3,15,7.4,16.1,8.7,16.1z"/>
</g>
</svg>
