<?xml version="1.0" encoding="utf-8"?>
<!-- Generator: Adobe Illustrator 25.0.0, SVG Export Plug-In . SVG Version: 6.00 Build 0)  -->
<svg color="#ffffff" fill="#ffffff" version="1.1" id="Layer_1" xmlns="http://www.w3.org/2000/svg" xmlns:xlink="http://www.w3.org/1999/xlink" x="0px" y="0px"
	 viewBox="0 0 38.5 38.5" style="enable-background:new 0 0 38.5 38.5;" xml:space="preserve">
<style type="text/css">
	.st0{fill:#ffffff;}
</style>
<g>
	<path class="st0" d="M29.3,18c4.3,0,7.9-3.5,7.9-7.9s-3.5-7.9-7.9-7.9s-7.9,3.5-7.9,7.9S25,18,29.3,18z M29.3,5.1
		c2.8,0,5.1,2.3,5.1,5.1s-2.3,5.1-5.1,5.1s-5.1-2.3-5.1-5.1C24.2,7.3,26.5,5.1,29.3,5.1z"/>
	<polygon class="st0" points="14.3,2.7 8.8,8.1 3.4,2.7 1.4,4.7 6.9,10.1 1.4,15.6 3.4,17.6 8.8,12.1 14.3,17.6 16.3,15.6 
		10.8,10.1 16.3,4.7 	"/>
	<polygon class="st0" points="14.3,21 8.8,26.4 3.4,21 1.4,22.9 6.9,28.4 1.4,33.9 3.4,35.9 8.8,30.4 14.3,35.9 16.3,33.9 
		10.8,28.4 16.3,22.9 	"/>
	<path class="st0" d="M29.3,20.6c-4.3,0-7.9,3.5-7.9,7.9s3.5,7.9,7.9,7.9s7.9-3.5,7.9-7.9S33.6,20.6,29.3,20.6z M29.3,33.5
		c-2.8,0-5.1-2.3-5.1-5.1s2.3-5.1,5.1-5.1s5.1,2.3,5.1,5.1C34.3,31.2,32.1,33.5,29.3,33.5z"/>
</g>
</svg>
