<?xml version="1.0" encoding="utf-8"?>
<!-- Generator: Adobe Illustrator 25.0.0, SVG Export Plug-In . SVG Version: 6.00 Build 0)  -->
<svg color="#ffffff" fill="#ffffff" version="1.1" id="Layer_1" xmlns="http://www.w3.org/2000/svg" xmlns:xlink="http://www.w3.org/1999/xlink" x="0px" y="0px"
	 viewBox="0 0 60 48" style="enable-background:new 0 0 60 48;" xml:space="preserve">

<path d="M10.6,15.7l-6.3,7.5c-0.6,0.6-0.5,1.7,0.2,2.1C5,25.8,6.1,25.6,6.5,25l5.7-6.8c2,1.1,3.8,1.8,5.7,2.6l-2.7,7.5
	c-0.3,0.8,0.2,1.7,0.9,2c0.8,0.3,1.7-0.2,2-0.9l2.7-7.5c2.6,0.8,5.3,1.2,7.8,1.4v8.5c0,0.8,0.8,1.5,1.5,1.5c0.8,0,1.5-0.8,1.5-1.5
	V23c2.4,0,4.7-0.5,7.1-1.1l3.3,8.1c0.3,0.8,1.2,1.1,2,0.8c0.8-0.3,1.1-1.2,0.8-2l-3.2-7.8c2.1-0.8,4.4-1.7,6.5-2.9l5.3,6.9
	c0.5,0.8,1.5,0.9,2.1,0.5c0.6-0.5,0.8-1.5,0.2-2.1l-6-7.8c-0.8-0.9-1.2-1.1-2.4-0.5c-10.4,6.5-24.7,5-34.4,0
	C11.7,14.7,11.4,14.9,10.6,15.7L10.6,15.7z"/>
</svg>
