<?xml version="1.0" encoding="utf-8"?>
<!-- Generator: Adobe Illustrator 25.0.0, SVG Export Plug-In . SVG Version: 6.00 Build 0)  -->
<svg  fill="#00000" color="#ffffff" version="1.1" id="Layer_1" xmlns="http://www.w3.org/2000/svg" xmlns:xlink="http://www.w3.org/1999/xlink" x="0px" y="0px"
	 viewBox="0 0 38.5 38.5" style="enable-background:new 0 0 38.5 38.5;" xml:space="preserve">
<style type="text/css">
	.st0{fill:#ffffff;}
</style>
<g>
	<path class="st0" d="M21.5,25.7h-2.9v-7.3c0,0,0,0,0,0c-0.3,0.1-0.6,0.1-0.9,0.1h-0.6v-2.8l0.5-0.1c0.3,0,0.6-0.1,0.8-0.2
		c0.3-0.1,0.6-0.2,0.8-0.5l0.2-0.1h2.1V25.7z"/>
	<path class="st0" d="M11.3,11.7c-0.3,0-0.6-0.1-0.8-0.3L8.2,9C7.9,8.8,7.8,8.5,7.8,8.2c0-0.3,0.1-0.6,0.3-0.8C8.4,7.2,8.7,7,9,7
		c0,0,0,0,0,0c0.3,0,0.6,0.1,0.8,0.3l2.3,2.3c0.5,0.5,0.5,1.2,0,1.7C11.9,11.5,11.6,11.7,11.3,11.7z"/>
	<path class="st0" d="M28.3,11.7c-0.3,0-0.6-0.1-0.8-0.3c-0.2-0.2-0.3-0.5-0.3-0.8s0.1-0.6,0.3-0.8l2.3-2.3c0.5-0.5,1.2-0.5,1.7,0
		c0.5,0.5,0.5,1.2,0,1.7l-2.3,2.3C28.9,11.5,28.6,11.7,28.3,11.7z M28.3,10.5L28.3,10.5L28.3,10.5z"/>
	<path class="st0" d="M19.8,8.8c-0.6,0-1.2-0.5-1.2-1.2V4.3c0-0.6,0.5-1.2,1.2-1.2S21,3.6,21,4.3v3.4C21,8.3,20.4,8.8,19.8,8.8z"/>
	<path class="st0" d="M30.6,32.7c-0.3,0-0.6-0.1-0.8-0.3l-2.3-2.3c-0.2-0.2-0.3-0.5-0.3-0.8c0-0.3,0.1-0.6,0.3-0.8
		c0.4-0.4,1.2-0.4,1.7,0l2.3,2.3c0.5,0.5,0.5,1.2,0,1.7C31.2,32.6,30.9,32.7,30.6,32.7z"/>
	<path class="st0" d="M9,32.7c-0.3,0-0.6-0.1-0.8-0.3c-0.2-0.2-0.3-0.5-0.3-0.8c0-0.3,0.1-0.6,0.3-0.8l2.3-2.3
		c0.2-0.2,0.5-0.3,0.8-0.3c0,0,0,0,0,0c0.3,0,0.6,0.1,0.8,0.3c0.5,0.5,0.5,1.2,0,1.7l-2.3,2.3C9.6,32.6,9.3,32.7,9,32.7z"/>
	<path class="st0" d="M19.8,36.6c-0.6,0-1.2-0.5-1.2-1.2v-3.4c0-0.6,0.5-1.2,1.2-1.2s1.2,0.5,1.2,1.2v3.4
		C21,36.1,20.4,36.6,19.8,36.6z"/>
	<path class="st0" d="M35.7,20.8h-4c-0.6,0-1.2-0.5-1.2-1.2c0-0.6,0.5-1.2,1.2-1.2h4c0.6,0,1.2,0.5,1.2,1.2
		C36.9,20.2,36.3,20.8,35.7,20.8z"/>
	<path class="st0" d="M7.3,20.8h-4c-0.6,0-1.2-0.5-1.2-1.2c0-0.6,0.5-1.2,1.2-1.2h4c0.6,0,1.2,0.5,1.2,1.2C8.5,20.2,8,20.8,7.3,20.8
		z"/>
</g>
</svg>
