<?xml version="1.0" encoding="utf-8"?>
<!-- Generator: Adobe Illustrator 25.0.0, SVG Export Plug-In . SVG Version: 6.00 Build 0)  -->
<svg  fill="#00000" color="#ffffff" version="1.1" id="Layer_1" xmlns="http://www.w3.org/2000/svg" xmlns:xlink="http://www.w3.org/1999/xlink" x="0px" y="0px"
	 viewBox="0 0 38.5 38.5" style="enable-background:new 0 0 38.5 38.5;" xml:space="preserve">
<style type="text/css">
	.st0{fill:#ffffff;}
</style>
<g>
	<path class="st0" d="M30.4,20.7c-1.1-0.2-2.1,0.4-2.5,1.4c-1.1,4.8-5,8.5-9.9,9.4c-4.9,0.9-9.7-1.2-12.5-5.4
		C5,25.3,3.7,25,2.8,25.6c-0.9,0.6-1.2,1.9-0.6,2.8c3.1,4.7,8.2,7.4,13.7,7.4c0.9,0,1.9-0.1,2.9-0.2c6.5-1.1,11.6-6,13-12.4
		C32.2,22.1,31.6,21.1,30.4,20.7z"/>
	<path class="st0" d="M30.2,2.9c-3.5-0.6-6.8,0.9-8.8,3.8c-0.6,0.9-0.3,2.1,0.6,2.8c0.9,0.6,2.1,0.3,2.8-0.6c1-1.6,2.9-2.3,4.7-2
		c1.8,0.3,3.3,1.7,3.8,3.6c0.2,0.9,1,1.6,1.9,1.6c0.1,0,0.3,0,0.4,0c1.1-0.2,1.8-1.3,1.4-2.5C36.4,6.1,33.7,3.6,30.2,2.9z"/>
	<circle class="st0" cx="4.7" cy="8.1" r="3.2"/>
</g>
</svg>
