<?xml version="1.0" encoding="utf-8"?>
<!-- Generator: Adobe Illustrator 25.0.0, SVG Export Plug-In . SVG Version: 6.00 Build 0)  -->
<svg color="#ffffff" fill="#ffffff" version="1.1" id="Layer_1" xmlns="http://www.w3.org/2000/svg" xmlns:xlink="http://www.w3.org/1999/xlink" x="0px" y="0px"
	 viewBox="0 0 38.5 38.5" style="enable-background:new 0 0 38.5 38.5;" xml:space="preserve">
<path d="M19.3,36.8c-7.9,0-14.4-6.4-14.4-14.3c0-4.2,0.8-6.1,1.4-7.6c0.1-0.2,0.2-0.4,0.2-0.5l1-2.6l1.3,2.5
	c1.5,2.8,3.8,4.6,6,4.6c0.5,0,1-0.4,1-0.9l0-0.1c-2.1-9.8,1.9-14.6,3.2-15.9l2-1.9l0.2,2.7c0.2,3,1.5,5.5,4.5,8.2
	c0.1,0.1,0.8,0.6,1.4,1.1c1,0.7,2,1.4,2.4,1.8c2.8,2.4,4.1,5,4.1,8.5c0,3.8-1.4,7.4-4.1,10.2c-2.7,2.7-6.2,4.2-9.9,4.2
	C19.5,36.8,19.3,36.8,19.3,36.8z M8,17.7c-0.3,1.1-0.6,2.5-0.6,4.8c0,6.5,5.2,11.7,11.7,11.8h0.3h0.3c3.1,0,5.8-1.2,8-3.5
	c2.2-2.2,3.4-5.2,3.4-8.4c0-2.7-1-4.7-3.2-6.6c-0.4-0.3-1.4-1.1-2.2-1.7c-0.9-0.6-1.4-1-1.6-1.2c-2.5-2.3-4-4.5-4.8-6.9
	c-1.1,2.1-2.1,5.7-1,11.2c0.1,0.3,0.1,0.6,0.1,0.8c0,1.9-1.6,3.4-3.5,3.4C12.4,21.5,9.9,20.1,8,17.7z"/>
</svg>
