<?xml version="1.0" encoding="utf-8"?>
<!-- Generator: Adobe Illustrator 25.0.0, SVG Export Plug-In . SVG Version: 6.00 Build 0)  -->
<svg color="#ffffff" fill="#ffffff" version="1.1" id="Layer_1" xmlns="http://www.w3.org/2000/svg" xmlns:xlink="http://www.w3.org/1999/xlink" x="0px" y="0px"
	 viewBox="0 0 38.5 38.5" style="enable-background:new 0 0 38.5 38.5;" xml:space="preserve">
<path d="M37.4,19.3c0-5.3-4.3-9.7-9.7-9.7c-5.2,0-8.6,3.4-9.6,9.5c-0.8,4.9-3.3,7.4-7.2,7.4c-4,0-7.2-3.2-7.2-7.2
	c0-3.7,2.8-6.8,6.5-7.2v0.7c0,0.7,0.3,1.3,0.8,1.5c0.2,0.1,0.4,0.2,0.7,0.2c0.3,0,0.7-0.1,1.1-0.3l2.8-1.8c0.6-0.4,0.9-0.9,0.9-1.5
	c0-0.6-0.3-1.1-0.9-1.5l-2.8-1.8c-0.6-0.4-1.2-0.5-1.7-0.2c-0.5,0.3-0.8,0.8-0.8,1.5v0.8c-5,0.4-8.9,4.6-8.9,9.6
	c0,5.3,4.3,9.7,9.7,9.7c5.2,0,8.6-3.4,9.6-9.5c0.8-4.9,3.3-7.4,7.2-7.4c4,0,7.2,3.2,7.2,7.2c0,3.8-2.9,6.9-6.6,7.2v-0.7
	c0-0.7-0.3-1.3-0.8-1.5c-0.5-0.3-1.1-0.2-1.7,0.2l-2.7,1.8c-0.6,0.4-0.9,0.9-0.9,1.5s0.3,1.1,0.9,1.5l2.7,1.8c0.3,0.2,0.7,0.3,1,0.3
	c0.2,0,0.5-0.1,0.7-0.2c0.5-0.3,0.8-0.8,0.8-1.5v-0.7C33.4,28.6,37.4,24.4,37.4,19.3z"/>
</svg>
