<?xml version="1.0" encoding="utf-8"?>
<!-- Generator: Adobe Illustrator 25.0.0, SVG Export Plug-In . SVG Version: 6.00 Build 0)  -->
<svg color="#ffffff" fill="#ffffff" version="1.1" id="Layer_1" xmlns="http://www.w3.org/2000/svg" xmlns:xlink="http://www.w3.org/1999/xlink" x="0px" y="0px"
	 viewBox="0 0 38.5 38.5" style="enable-background:new 0 0 38.5 38.5;" xml:space="preserve">
<path d="M33.2,16.3c6.3-5.8-4.5-13.9-8.4-6.5c-0.1,0.2-0.4,0.2-0.5,0c-1.9-4.1-8.4-3.7-9.9,0.5c-0.1,0.2-0.4,0.2-0.5,0
	c-3.2-8-15.1-0.3-8.6,6c0.1,0.1,0.1,0.3-0.1,0.4c-4.1,1.8-5.1,6.7-4.7,10.9c0.7,4.9,9.7,4.5,13.5,3.3c0,0,0.1,0,0.1,0
	c2.8,1,7.2,1,10.2,0.1c0,0,0.1,0,0.1,0c3.5,1,9.5,1.1,12.4-1.3c0.6-0.5,1-1.3,1-2c0.4-4.2-0.6-9.1-4.7-10.8
	C33.1,16.7,33,16.5,33.2,16.3z M29.6,9c4.3-0.1,4.3,6.7,0,6.7C25.3,15.7,25.3,8.9,29.6,9z M24.3,14.8c0.1-0.2,0.4-0.2,0.5,0
	c0.4,0.7,0.9,1.3,1.5,1.8c-0.2,0.1-0.3,0.2-0.5,0.1c-0.3,0.3-0.7,0.5-1.1,0.8c-0.1,0.1-0.2,0.1-0.3,0c-0.4-0.3-0.8-0.5-1.3-0.7
	c-0.2-0.1-0.2-0.3-0.1-0.4C23.6,15.9,24,15.4,24.3,14.8z M19.5,9c4.3-0.1,4.3,6.7,0,6.7C15.2,15.7,15.2,8.9,19.5,9z M14.5,14.3
	c0.3,0.8,0.8,1.5,1.5,2.1c0.1,0.1,0.1,0.3-0.1,0.4c-0.5,0.2-1,0.5-1.5,0.9c-0.1,0.1-0.2,0.1-0.3,0c-0.5-0.4-1-0.6-1.5-0.9
	c-0.2-0.1-0.2-0.3-0.1-0.4c0.6-0.6,1.1-1.3,1.4-2.1C14.1,14.1,14.4,14.1,14.5,14.3z M8.9,9c4.3-0.1,4.3,6.7,0,6.7
	C4.6,15.7,4.6,8.9,8.9,9z M35.7,28L35.7,28L35.7,28c-2.6,2.1-8,1.9-11.1,0.8c-0.1,0-0.1,0-0.2,0c-2.8,1.1-7.5,1.1-10.2-0.1
	c-0.1,0-0.1,0-0.2,0c-3.2,1.3-9.7,1.6-11.4-1c0,0,0-0.1,0-0.1c-1.3-7.6,5.6-13,11.3-7c0.1,0.1,0.3,0.1,0.4,0c2.5-3.1,7.3-3.3,10-0.3
	c0.1,0.1,0.3,0.1,0.4,0c0.6-0.5,1.2-1.3,1.9-1.4c3.9-2.4,9.3,0.9,9.2,5.5C35.8,24.4,35.9,27.9,35.7,28L35.7,28
	C35.7,27.9,35.7,28,35.7,28"/>
</svg>
