<?xml version="1.0" encoding="utf-8"?>
<!-- Generator: Adobe Illustrator 25.0.0, SVG Export Plug-In . SVG Version: 6.00 Build 0)  -->
<svg fill="#00000" color="#ffffff" version="1.1" id="Layer_1" xmlns="http://www.w3.org/2000/svg" xmlns:xlink="http://www.w3.org/1999/xlink" x="0px" y="0px"
	 viewBox="0 0 40.1 38.5" style="enable-background:new 0 0 40.1 38.5;" xml:space="preserve">
<style type="text/css">
	.st0{fill:#ffffff;}
</style>
<path class="st0" d="M22.7,24.9H18c-0.5,0-0.8,0.4-0.8,0.8v2.6c0,0.5,0.4,0.8,0.8,0.8h4.7c0.5,0,0.8-0.4,0.8-0.8v-2.6
	C23.4,25.2,23,24.9,22.7,24.9z M21.8,27.4h-3v-1.1h3V27.4z"/>
<path class="st0" d="M25.5,10.4c-0.2-0.2-0.6-0.4-1.1-0.6l6.4-10.7l-1.2-0.7L22.9,9.3h-0.1V8.6c0-0.5-0.4-0.8-0.8-0.8h-3.3
	c-0.2,0-0.5,0.1-0.6,0.4l-6.2-9.9L10.2-1l6.3,10.7c-0.5,0.2-0.9,0.5-1.3,0.6c-0.7,0.5-1.2,1.3-1.2,2.1v4.9c0,0.9,0.6,1.8,1.4,2.2
	c0.4,0.1,0.5,0.5,0.5,0.8v2l-1.3,2.2c-0.2,0.4-0.4,0.8-0.4,1.3v2.1c0,0.5,0.1,0.9,0.5,1.4l0.9,1.4c0.5,0.7,1.2,1.1,2,1.1h2.1V34H17
	c-0.5,0-0.8,0.4-0.8,0.8s0.4,0.8,0.8,0.8h2.8v3H17c-0.5,0-0.8,0.4-0.8,0.8s0.4,0.8,0.8,0.8h2.8l1.5-0.4V39h2.8
	c0.5,0,0.8-0.4,0.8-0.8s-0.4-0.8-0.8-0.8h-2.8v-3h2.8c0.5,0,0.8-0.4,0.8-0.8c0-0.5-0.4-0.8-0.8-0.8h-2.8v-0.9h1.5
	c0.8,0,1.6-0.5,2.1-1.2l0.9-1.4c0.2-0.4,0.4-0.8,0.4-1.3v-2.1c0-0.5-0.1-0.8-0.4-1.3l-1.2-2c-0.1-0.1-0.1-0.4-0.1-0.5v-1.8
	c0-0.4,0.2-0.7,0.5-0.8c0.8-0.4,1.4-1.3,1.4-2.2v-4.8C26.6,11.5,26.2,10.8,25.5,10.4z M19.5,9.5h1.8v4.9h-1.8V9.5z M19.5,16h1.6v1.9
	h-1.6C19.5,17.7,19.5,16,19.5,16z M25,17.4c0,0.4-0.2,0.7-0.5,0.8c-0.8,0.4-1.4,1.3-1.4,2.2v1.8c0,0.5,0.1,0.8,0.4,1.3l1.2,2
	c0.1,0.1,0.1,0.4,0.1,0.5V28c0,0.2,0,0.4-0.1,0.5l-0.9,1.4c-0.1,0.2-0.5,0.5-0.7,0.5h-5.3c-0.4,0-0.6-0.1-0.7-0.4l-0.9-1.4
	C16,28.5,16,28.3,16,28.1V26c0-0.1,0-0.4,0.1-0.5l1.4-2.3c0.1-0.1,0.1-0.2,0.1-0.4v-2.2c0-0.9-0.6-1.8-1.4-2.2
	c-0.4-0.1-0.5-0.5-0.5-0.8v-5.2c0-0.4,0.1-0.6,0.5-0.8c0.5-0.4,1.2-0.6,1.9-0.7v4.2v2.6c0,0.8,0.7,1.6,1.6,1.6h1.6
	c0.8,0,1.5-0.7,1.5-1.5v-2.6v-4.2c0.7,0.1,1.4,0.4,1.9,0.7c0.2,0.1,0.5,0.5,0.5,0.8v4.8H25z"/>
</svg>
