<?xml version="1.0" encoding="utf-8"?>
<!-- Generator: Adobe Illustrator 25.0.0, SVG Export Plug-In . SVG Version: 6.00 Build 0)  -->
<svg color="#ffffff" fill="#ffffff" version="1.1" id="Layer_1" xmlns="http://www.w3.org/2000/svg" xmlns:xlink="http://www.w3.org/1999/xlink" x="0px" y="0px"
	 viewBox="0 0 38.5 38.5" style="enable-background:new 0 0 38.5 38.5;" xml:space="preserve">

<path d="M37.5,12.8c-0.2-0.3-5.9-6.8-12.7-8.1c-0.1,0-0.3,0-0.4,0c-1.1,0-2.2,0.7-3.4,1.4C20.4,6.4,19.6,7,19.3,7
	c-0.3,0-1.2-0.6-1.8-0.9c-1.1-0.7-2.4-1.4-3.4-1.4c-0.2,0-0.3,0-0.6,0C6.7,6.2,1.2,13,1,13.3c-0.4,0.6-0.3,1.3,0.1,1.8
	c0.2,0.1,3,2.5,7.6,4.4v3.9c0,5.8,4.7,10.6,10.6,10.6s10.6-4.7,10.6-10.6v-3.7c4.8-2,7.5-5,7.7-5.1C37.9,14,37.9,13.3,37.5,12.8z
	 M27.2,23.3c0,4.4-3.5,8-8,8s-8-3.6-8-8v-5.6l0,0c0-2,1.7-2.9,3.2-2.9c1.4,0,2.8,0.6,3.9,1.8V22c0,0.5,0.4,0.9,0.9,0.9
	s0.9-0.4,0.9-0.9v-5.5c1.1-1.1,2.5-1.8,3.9-1.8c1.6,0,3.1,0.9,3.1,2.9L27.2,23.3z M29.7,16.9c-0.3-2.7-2.7-4.7-5.7-4.7
	c-1.7,0-3.3,0.6-4.8,1.7c-1.4-1.1-3.1-1.7-4.8-1.7c-2.9,0-5.3,1.9-5.7,4.5c-2.2-1-3.9-2-4.9-2.8c1.7-1.9,5.7-5.7,10.2-6.7
	c0.4,0,1.5,0.6,2.1,1c1.1,0.7,2.1,1.2,3,1.2c0.9,0,1.9-0.6,3-1.3c0.6-0.3,1.7-1,2-1c4.6,0.9,8.8,4.7,10.5,6.4
	C33.8,14.5,32.1,15.8,29.7,16.9z"/>
</svg>
