<?xml version="1.0" encoding="utf-8"?>
<!-- Generator: Adobe Illustrator 25.0.0, SVG Export Plug-In . SVG Version: 6.00 Build 0)  -->
<svg color="#ffffff" fill="#ffffff" version="1.1" id="Layer_1" xmlns="http://www.w3.org/2000/svg" xmlns:xlink="http://www.w3.org/1999/xlink" x="0px" y="0px"
	 viewBox="0 0 38.5 38.5" style="enable-background:new 0 0 38.5 38.5;" xml:space="preserve">
	<path d="M33.1,27.9c1.6-2.5,2.5-5.4,2.5-8.6c0-3.3-1-6.3-2.6-8.9l-4,4c0.7,1.5,1.1,3.1,1.1,4.8c0,1.7-0.4,3.2-1,4.6
		L33.1,27.9z M19.3,8.5c1.6,0,3.1,0.4,4.5,1l4.1-4.1c-2.5-1.6-5.4-2.5-8.6-2.5c-3.2,0-6.1,0.9-8.6,2.5l4.1,4.1
		C16.1,8.8,17.6,8.5,19.3,8.5z M10.4,33c2.6,1.7,5.6,2.6,8.9,2.6c3.3,0,6.3-1,8.9-2.6l-4-4c-1.5,0.7-3.1,1.1-4.8,1.1
		c-1.7,0-3.4-0.4-4.8-1.1L10.4,33z M19.3,1.5C29.1,1.5,37,9.5,37,19.3c0,6-3,11.4-7.8,14.7c-2.9,2-6.4,3.1-10,3.1
		c-9.8,0-17.8-8-17.8-17.8S9.5,1.5,19.3,1.5z M19.3,9.9c-5.2,0-9.4,4.2-9.4,9.4c0,3.5,1.9,6.5,4.7,8.1c0.1,0,0.1,0.1,0.2,0.1
		c1.3,0.7,2.9,1.2,4.5,1.2c1.6,0,3.1-0.4,4.4-1.1c0.1-0.1,0.2-0.1,0.3-0.2c1.4-0.8,2.6-2,3.5-3.5c0-0.1,0.1-0.3,0.2-0.4
		c0,0,0,0,0,0c0.6-1.3,1-2.7,1-4.2C28.7,14.1,24.5,9.9,19.3,9.9z M8.5,19.3c0-1.7,0.4-3.4,1.1-4.8l-4-4C3.9,13,2.9,16,2.9,19.3
		c0,3.2,0.9,6.1,2.5,8.6l4.1-4.1C8.8,22.4,8.5,20.9,8.5,19.3z"/>
</svg>
