<svg color="#ffffff" fill="#ffffff" xmlns="http://www.w3.org/2000/svg" width="32.743" height="50.31" viewBox="0 0 32.743 50.31">
  <g id="Group_349" data-name="Group 349" transform="translate(-64.257 -228)">
    <path id="Path_591" data-name="Path 591" d="M1,0H17a1,1,0,0,1,1,1V28a1,1,0,0,1-1,1H7.887A9.9,9.9,0,0,1,9.16,24.735c-.21-1.586-2.29-3.986-3.173-5.117C4.05,17.138.14,19.076.14,19.076L0,1A1,1,0,0,1,1,0Z" transform="translate(73 228)" fill="#fb3"/>
    <rect id="Rectangle_301" data-name="Rectangle 301" width="5" height="2" transform="translate(73 252)" fill="#fb3"/>
    <g id="Group_347" data-name="Group 347">
      <path id="Path_588" data-name="Path 588" d="M516,69.023a.742.742,0,0,0,.737-.737V57.831a.737.737,0,1,0-1.474,0V68.286A.736.736,0,0,0,516,69.023Z" transform="translate(-419.79 176.035)" fill="#fb3"/>
      <path id="Path_589" data-name="Path 589" d="M516.292,207.066a.786.786,0,1,1-.786-.786.786.786,0,0,1,.786.786" transform="translate(-419.292 40.252)" fill="#fb3"/>
      <path id="Path_590" data-name="Path 590" d="M193.043,0H177.518a2.214,2.214,0,0,0-2.211,2.211V18.4a3.7,3.7,0,0,0-2.555,1.523L168.438,26a3.7,3.7,0,0,0-.609,2.859l4.2,20.861a.725.725,0,0,0,.717.59.744.744,0,0,0,.147-.01.736.736,0,0,0,.58-.865l-4.2-20.851a2.228,2.228,0,0,1,.364-1.72l4.314-6.073a2.226,2.226,0,0,1,1.8-.934h5.139a2.216,2.216,0,0,1,1.847.992l2.5,3.783a.593.593,0,0,1,.088.491.568.568,0,0,1-.295.354,2.121,2.121,0,0,1-2.692-.678l-1.287-1.837a.736.736,0,0,0-.6-.314H177.6a.742.742,0,0,0-.639.364L175.621,25.3h-3.066a.737.737,0,0,0,0,1.474h9.5a1.5,1.5,0,0,1,1.5,1.277c.088.57.187,1.268.275,2.044a3.026,3.026,0,0,0-1.3-.295h-8.323a.737.737,0,1,0,0,1.474h8.323a1.509,1.509,0,0,1,1.494,1.248c.029.54.039,1.11.039,1.68v.511a2.949,2.949,0,0,0-1.592-.452H175.73a.737.737,0,1,0,0,1.474h6.751a1.514,1.514,0,0,1,1.484,1.209c-.1,1.346-.265,2.535-.4,3.419a1.5,1.5,0,0,1-1.5,1.277h-.609l-.983-1.474h1a.737.737,0,1,0,0-1.474H179.09a.738.738,0,0,0-.609,1.15l1.965,2.948a7.49,7.49,0,0,1,.943,6.593.733.733,0,0,0,1.1.806l1.955-1.238a9.055,9.055,0,0,0,4.225-7.605V34.411a10.82,10.82,0,0,1,1.081-4.7h3.282a2.214,2.214,0,0,0,2.211-2.211V2.211A2.2,2.2,0,0,0,193.043,0ZM177.331,25.3l.688-1.179h2.044l.825,1.179ZM187.2,41.26a7.616,7.616,0,0,1-3.547,6.456l-.521.324a8.416,8.416,0,0,0-.816-4.933,2.994,2.994,0,0,0,2.692-2.506,40.726,40.726,0,0,0,.531-6.387,40.192,40.192,0,0,0-.265-4.491h2.869a12.222,12.222,0,0,0-.943,4.7Zm6.584-13.747a.742.742,0,0,1-.737.737h-7.959c-.02-.147-.049-.295-.069-.423a2.877,2.877,0,0,0-.206-.717,3.849,3.849,0,0,0,.894-.3,2.034,2.034,0,0,0,1.061-1.287,2.089,2.089,0,0,0-.285-1.68l-2.5-3.783a3.678,3.678,0,0,0-3.076-1.661H176.79V2.23a.742.742,0,0,1,.737-.737h15.525a.742.742,0,0,1,.737.737V27.513Z" transform="translate(-103.502 228)"/>
    </g>
  </g>
</svg>
